HIERARCHY
ROOT Hips
{
	OFFSET 0.000000 0.000000 0.000000 
	CHANNELS 6 Xposition Yposition Zposition Yrotation Zrotation Xrotation 
	JOINT Lumbar
	{
		OFFSET 0.000000 0.000000 0.000000 
		CHANNELS 3 Zrotation Xrotation Yrotation
		JOINT Neck
		{
			OFFSET 0.000000 0.445665 0.000000 
			CHANNELS 3 Zrotation Xrotation Yrotation
			End Site
			{
				OFFSET 0.000000 0.227535 0.000000 
			}
		}
		JOINT RightShoulder
		{
			OFFSET 0.019635 0.377685 0.194865 
			CHANNELS 3 Zrotation Xrotation Yrotation
			JOINT RightElbow
			{
				OFFSET 0.000000 -0.243375 0.000000 
				CHANNELS 2 Zrotation Yrotation
				JOINT RightWrist
				{
					OFFSET 0.000000 -0.264825 0.000000 
					CHANNELS 2 Zrotation Xrotation
					End Site
					{
						OFFSET 0.006600 -0.176220 0.000990 
					}
				}
			}
		}
		JOINT LeftShoulder
		{
			OFFSET 0.019635 0.377685 -0.194865 
			CHANNELS 3 Zrotation Xrotation Yrotation
			JOINT LeftElbow
			{
				OFFSET 0.000000 -0.243375 0.000000 
				CHANNELS 2 Zrotation Yrotation
				JOINT LeftWrist
				{
					OFFSET 0.000000 -0.264825 0.000000 
					CHANNELS 2 Zrotation Xrotation
					End Site
					{
						OFFSET 0.006600 -0.176220 -0.000990 
					}
				}
			}
		}
	}
	JOINT RightHip
	{
		OFFSET 0.052140 -0.069960 0.075570 
		CHANNELS 3 Zrotation Xrotation Yrotation
		JOINT RightKnee
		{
			OFFSET 0.000000 -0.402270 0.000000 
			CHANNELS 1 Zrotation
			JOINT RightAnkle
			{
				OFFSET 0.000000 -0.404085 0.000000 
				CHANNELS 3 Zrotation Xrotation Yrotation
				End Site
				{
					OFFSET 0.204105 -0.089430 0.008415 
				}
			}
		}
	}
	JOINT LeftHip
	{
		OFFSET 0.052140 -0.069960 -0.075570 
		CHANNELS 3 Zrotation Xrotation Yrotation
		JOINT LeftKnee
		{
			OFFSET 0.000000 -0.402270 0.000000 
			CHANNELS 1 Zrotation
			JOINT LeftAnkle
			{
				OFFSET 0.000000 -0.404085 0.000000 
				CHANNELS 3 Zrotation Xrotation Yrotation
				End Site
				{
					OFFSET 0.204105 -0.089430 -0.008415 
				}
			}
		}
	}
}
MOTION
Frames: 13
Frame Time: 0.02
-0.41517 -0.01077 -0.31575 -175.41387 -24.77697 -2.37081 34.35871 2.83885 -3.40061 -8.33898 -6.29267 -2.11992 -18.33085 -34.75322 12.76699 47.24704 81.6526 -3.38116 -0.73559 7.96535 60.26847 -21.918 66.52514 -80.11011 -11.00682 1.65903 18.67037 4.43457 -14.0739 -11.58194 -7.57956 -2.65032 -3.57883 34.46541 13.20543 8.18739 -27.97165 -9.41814 3.09995 3.88574
-0.4107 -0.01066 -0.32133 -175.40227 -24.69744 -2.24724 34.24279 3.06803 -3.63499 -8.16807 -6.38282 -2.11992 -16.24247 -37.64106 12.66734 44.87103 80.31832 -3.95135 -0.03514 17.56543 62.59987 -28.00249 63.21138 -80.34205 -11.01442 2.18153 18.92727 4.60508 -14.3692 -11.70249 -7.5758 -2.62439 -3.56537 35.3468 13.65241 8.1224 -29.02879 -9.61479 3.02463 3.85884
-0.40643 -0.01034 -0.3265 -175.51624 -24.6976 -2.09034 34.21673 3.28358 -3.82049 -7.99399 -6.49838 -2.11992 -13.65181 -40.61152 12.68573 42.25749 78.64226 -4.61693 0.8506 28.50395 64.34776 -35.27537 58.96573 -80.63881 -10.69994 2.85628 19.29879 4.69271 -14.6613 -11.87627 -7.58061 -2.59018 -3.54828 36.28391 14.09202 8.21174 -30.10839 -9.81134 2.9289 3.82198
-0.40216 -0.01009 -0.33178 -175.57817 -24.66253 -1.94526 34.15648 3.5035 -4.02738 -7.82058 -6.60396 -2.11992 -11.2353 -43.52827 12.6593 39.76933 77.20468 -5.2077 1.60562 38.72709 66.26955 -41.79573 55.09204 -80.88134 -10.45957 3.47056 19.60798 4.81184 -14.93964 -12.01354 -7.58255 -2.55991 -3.533 37.16724 14.52138 8.23214 -31.13797 -9.99816 2.84365 3.78994
-0.3975 -0.00991 -0.3374 -175.61652 -24.62476 -1.81477 34.06875 3.73197 -4.23714 -7.64719 -6.70234 -2.11992 -9.06238 -46.5364 12.57043 37.20889 75.42831 -5.92522 2.55148 49.44678 68.58823 -49.22316 51.40433 -81.22363 -10.51387 4.04469 19.96134 4.95817 -15.28343 -12.20038 -7.58044 -2.52873 -3.51694 38.17888 15.01056 8.24431 -32.34495 -10.22627 2.75278 3.75642
-0.3937 -0.00956 -0.3422 -175.73442 -24.61058 -1.64674 34.05934 3.9396 -4.43037 -7.47468 -6.82157 -2.11992 -6.23773 -49.3572 12.66851 34.73641 74.26421 -6.40538 3.15182 59.42866 69.94261 -55.04448 47.13385 -81.38232 -9.89242 4.73176 20.24875 5.02843 -15.49006 -12.2976 -7.58863 -2.49762 -3.50172 38.93207 15.37225 8.31001 -33.18236 -10.36884 2.6694 3.72389
-0.39215 -0.00874 -0.34493 -176.04468 -24.6474 -1.3711 34.24489 4.08601 -4.57932 -7.30042 -6.99702 -2.11992 -1.97958 -51.73278 12.9676 32.64041 74.96959 -6.18542 2.67769 67.09546 68.70841 -56.07786 41.31365 -80.92887 -7.35402 5.79568 20.33643 4.89963 -15.31363 -12.13402 -7.62396 -2.46779 -3.48931 38.97408 15.38612 8.50425 -33.01691 -10.26903 2.60633 3.69418
-0.39148 -0.00777 -0.34683 -176.4302 -24.70425 -1.06079 34.50613 4.2128 -4.71506 -7.12868 -7.1917 -2.11992 2.95693 -53.89573 13.47008 30.63159 76.2862 -5.7275 1.8615 73.95595 66.53346 -55.46273 34.97415 -80.30218 -4.17104 6.95202 20.35208 4.69847 -14.9999 -11.87894 -7.66918 -2.43854 -3.47796 38.75048 15.27119 8.74441 -32.47411 -10.08422 2.55245 3.66622
-0.39046 -0.00689 -0.34907 -176.77966 -24.74807 -0.77412 34.73196 4.35319 -4.86396 -6.95917 -7.37468 -2.11992 7.74727 -56.09599 14.11159 28.52924 77.25806 -5.39358 1.25317 81.15076 64.83256 -55.64145 28.98346 -79.816 -1.36757 7.99919 20.39362 4.53637 -14.75227 -11.66617 -7.70929 -2.40962 -3.46635 38.63643 15.21336 8.95191 -32.08697 -9.94227 2.49797 3.63902
-0.38924 -0.00591 -0.35145 -177.14214 -24.81057 -0.45325 34.96445 4.47416 -4.98172 -6.77441 -7.57151 -2.11992 11.88983 -58.55799 13.92196 26.63038 78.49444 -4.99746 0.4373 88.53965 62.91817 -55.6753 22.47826 -79.08134 1.81414 9.32977 20.46713 4.34578 -14.48934 -11.45168 -7.75222 -2.37776 -3.45362 38.56997 15.16139 9.21386 -31.76468 -9.78237 2.4279 3.60499
-0.38863 -0.00511 -0.35335 -177.49268 -24.83876 -0.19551 35.20081 4.63009 -5.16087 -6.62315 -7.74312 -2.11992 17.51233 -60.413 15.33214 24.35122 79.33746 -4.67129 -0.039 95.30136 61.2289 -55.60137 16.94044 -78.80964 4.35498 10.09665 20.4566 4.19788 -14.2252 -11.21895 -7.7916 -2.35245 -3.44362 38.34256 15.06668 9.37208 -31.22102 -9.63978 2.39247 3.58563
-0.38943 -0.0049 -0.35418 -177.80049 -24.75896 -0.12338 35.42079 4.89582 -5.52076 -6.55508 -7.84518 -2.11992 27.25605 -60.72991 22.68215 20.83216 78.87517 -4.61229 0.58371 100.63624 60.42409 -55.64745 14.14848 -79.96741 4.98424 9.22769 20.22089 4.19022 -13.99579 -10.95309 -7.81807 -2.34371 -3.44016 37.71816 14.88591 9.22582 -30.12762 -9.56501 2.45313 3.60724
-0.39081 -0.00489 -0.35454 -178.09141 -24.64496 -0.11554 35.64303 5.19576 -5.94125 -6.52264 -7.91998 -2.11992 38.42409 -60.42705 31.37368 16.95946 78.00908 -4.62849 1.54515 105.33954 59.87458 -55.63308 12.36261 -81.57716 4.94256 7.79847 19.90438 4.22744 -13.76918 -10.67277 -7.8407 -2.34182 -3.43956 36.94417 14.66677 8.97429 -28.83076 -9.51088 2.54796 3.64345
